<?xml version="1.0" encoding="UTF-8"?>
<svg width="75px" height="76px" viewBox="0 0 75 76" version="1.1" xmlns="http://www.w3.org/2000/svg" xmlns:xlink="http://www.w3.org/1999/xlink">
    <!-- Generator: Sketch 47.1 (45422) - http://www.bohemiancoding.com/sketch -->
    <title>Group</title>
    <desc>Created with Sketch.</desc>
    <defs></defs>
    <g id="Page-1" stroke="none" stroke-width="1" fill="none" fill-rule="evenodd">
        <g id="首页-直播倒计时" transform="translate(-743.000000, -424.000000)">
            <g id="2" transform="translate(390.000000, 232.000000)">
                <g id="main">
                    <g id="Group" transform="translate(353.000000, 192.000000)">
                        <path d="M3.28125,73.59375 L72.65625,73.59375" id="Line" stroke="#D75B5B" stroke-width="4" stroke-linecap="square"></path>
                        <path d="M71.6155022,13.1072325 C73.8092522,15.0918668 74.9654476,17.7039301 74.9654476,20.4225164 L74.9654476,55.3206878 C74.9654476,58.1419487 73.8092522,60.7556496 71.7299672,62.6356441 C69.6526474,64.620524 66.7645742,65.6660207 63.645524,65.6660207 L11.3199236,65.6660207 C8.31730349,65.6660207 5.5433679,64.620524 3.3496179,62.6356441 C1.15619541,60.6510098 0,58.039274 0,55.3206878 L0,20.3179585 C0,17.5993723 1.15619541,14.9853439 3.3496179,13.0026747 C5.5433679,11.0181223 8.31730349,9.97254367 11.3199236,9.97254367 L24.951583,9.97254367 L20.9073144,3.70316594 C20.2148745,2.55302948 20.5602347,1.19566048 21.8306496,0.359279476 C23.1502729,-0.273635371 24.7350983,0.174399563 25.5275928,1.40485808 L31.0709607,10.0771834 L42.7382915,10.0771834 L48.2816594,1.40485808 C49.2068777,0.254721616 50.7081878,-0.163673581 51.9786026,0.463919214 C53.2490175,1.19377729 53.5963428,2.65758734 52.9039028,3.8077238 L48.8595524,10.0771834 L63.645524,10.0771834 C66.6481441,10.0771834 69.4217522,11.1226801 71.6155022,13.1072325 Z" id="Fill-1" fill="#D75B5B"></path>
                        <path d="M30.7201146,51.7301856 L49.4180404,38.4772107 C50.3017467,37.8519105 50.2662118,36.8774017 49.3252729,36.3131823 L30.5326965,25.0544214 C29.5914301,24.490202 28.8360262,24.9203876 28.8459334,26.0151747 L29.0864083,50.8919214 C29.0963155,51.9786845 29.8284662,52.3615448 30.7179039,51.7301856 L30.7201146,51.7301856 Z" id="Path" fill="#FFFFFF"></path>
                    </g>
                </g>
            </g>
        </g>
    </g>
</svg>